# xmcd CD database file
#
# Track frame offsets:
#	150
#	18245
#	38672
#	61142
#	83617
#	103025
#	124300
#	143980
#	158967
#	177232
#	210432
#	230012
#	246137
#	264600
#	282830
#	310462
#	330412
#
# Disc length: 4639 seconds
#
# Revision: 0
# Processed by: cddbd v1.5.1PL2 Copyright (c) Steve Scherf et al.
# Submitted via: CDex 1.51
#
DISCID=e9121d11
DTITLE=Kenny G - Greatest Hits
DYEAR=1900
DGENRE=Jazz
TTITLE0=Songbird
TTITLE1=Silhouette
TTITLE2=Forever In Love
TTITLE3=Everytime I Close My Eyes
TTITLE4=Sentimental
TTITLE5=he Moment
TTITLE6=How Could An Angel Break My Heart
TTITLE7=Loving You
TTITLE8=You Send Me
TTITLE9=Havana
TTITLE10=By The Time This Night Is Over
TTITLE11=Baby G
TTITLE12=Don't Make Me Wait For Love
TTITLE13=Theme From "Dying Young"
TTITLE14=All The Way - One For My Baby (And One More For The Road)
TTITLE15=My Heart Will Go On
TTITLE16=Asian Dream
EXTD=
EXTT0=
EXTT1=
EXTT2=
EXTT3=
EXTT4=
EXTT5=
EXTT6=
EXTT7=
EXTT8=
EXTT9=
EXTT10=
EXTT11=
EXTT12=
EXTT13=
EXTT14=
EXTT15=
EXTT16=
PLAYORDER=
